0
SECTION
2
HEADER
9
$INSUNITS
70
4
9
$ACADVER
1
AC1014
9
$HANDSEED
5
FFFF
0
ENDSEC
0
SECTION
2
TABLES
0
TABLE
2
VPORT
5
8
100
AcDbSymbolTable
0
ENDTAB
0
TABLE
2
LTYPE
5
5
100
AcDbSymbolTable
0
LTYPE
5
14
100
AcDbSymbolTableRecord
100
AcDbLinetypeTableRecord
2
BYBLOCK
70
0
0
LTYPE
5
15
100
AcDbSymbolTableRecord
100
AcDbLinetypeTableRecord
2
BYLAYER
70
0
0
LTYPE
5
16
100
AcDbSymbolTableRecord
100
AcDbLinetypeTableRecord
2
DASHED
70
0
3
Dashed __ __ __ __ __ __ __ __ __ __ __ __ __ _
72
65
73
2
40
0.75
49
0.5
74
0
49
-0.25
74
0
0
ENDTAB
0
TABLE
2
LAYER
5
2
100
AcDbSymbolTable
70
2
0
LAYER
5
50
100
AcDbSymbolTableRecord
100
AcDbLayerTableRecord
2
0
70
0
62
7
6
CONTINUOUS
0
ENDTAB
0
TABLE
2
STYLE
5
3
100
AcDbSymbolTable
70
1
0
STYLE
5
11
100
AcDbSymbolTableRecord
100
AcDbTextStyleTableRecord
2
STANDARD
70
0
0
ENDTAB
0
TABLE
2
VIEW
5
6
100
AcDbSymbolTable
70
0
0
ENDTAB
0
TABLE
2
UCS
5
7
100
AcDbSymbolTable
70
0
0
ENDTAB
0
TABLE
2
APPID
5
9
100
AcDbSymbolTable
70
2
0
APPID
5
12
100
AcDbSymbolTableRecord
100
AcDbRegAppTableRecord
2
ACAD
70
0
0
ENDTAB
0
TABLE
2
DIMSTYLE
5
A
100
AcDbSymbolTable
70
1
0
ENDTAB
0
TABLE
2
BLOCK_RECORD
5
1
100
AcDbSymbolTable
70
1
0
BLOCK_RECORD
5
1F
100
AcDbSymbolTableRecord
100
AcDbBlockTableRecord
2
*MODEL_SPACE
0
BLOCK_RECORD
5
1B
100
AcDbSymbolTableRecord
100
AcDbBlockTableRecord
2
*PAPER_SPACE
0
ENDTAB
0
ENDSEC
0
SECTION
2
BLOCKS
0
BLOCK
5
20
100
AcDbEntity
100
AcDbBlockBegin
2
*MODEL_SPACE
0
ENDBLK
5
21
100
AcDbEntity
100
AcDbBlockEnd
0
BLOCK
5
1C
100
AcDbEntity
100
AcDbBlockBegin
2
*PAPER_SPACE
0
ENDBLK
5
1D
100
AcDbEntity
100
AcDbBlockEnd
0
ENDSEC
0
SECTION
2
ENTITIES
0
CIRCLE
5
100
100
AcDbEntity
8
0
100
AcDbCircle
10
469.72981233208429
20
369.99999999999852
30
0
40
14.499999999999957
210
8.084129263269062e-34
220
-3.3656949157977432e-50
230
1
0
CIRCLE
5
101
100
AcDbEntity
8
0
100
AcDbCircle
10
469.72981233208429
20
369.99999999999852
30
0
40
3.4000000000000243
210
3.8040948571880484e-35
220
-3.1554436208840472e-30
230
1
0
LWPOLYLINE
5
102
100
AcDbEntity
8
0
100
AcDbPolyline
90
12
70
1
43
0.0
10
479.91117609819355
20
394.93104239677388
10
459.51510014207605
20
394.93104239677314
42
0.068246728491266145
10
453.16152664737092
20
391.26280502928972
10
442.96348866931197
20
373.59928511377461
42
0.06824672849128105
10
442.96348866930919
20
366.26281037880489
10
453.16152664737052
20
348.59929046329114
42
0.068246728491275985
10
459.51510014207628
20
344.93105309580619
10
479.91117609819491
20
344.93105309580727
42
0.068246728491267089
10
486.26474959289942
20
348.59929046329256
10
496.46278757095274
20
366.26281037880949
42
0.068246728491265313
10
496.46278757095666
20
373.59928511377689
10
486.264749592898
20
391.26280502928876
42
0.068246728491266451
0
ARC
5
103
100
AcDbEntity
8
0
100
AcDbCircle
10
469.71313812013386
20
369.9310477462904
30
0
40
29.999994650483345
210
-7.58301769885144e-31
220
-2.1743954004542772e-31
230
1
100
AcDbArc
50
4.8886038532034739
51
42.640862252054873
0
ARC
5
104
100
AcDbEntity
8
0
100
AcDbCircle
10
469.71313812013386
20
369.9310477462904
30
0
40
29.99999465048348
210
-7.5830176988514356e-31
220
-2.1743954004541983e-31
230
1
100
AcDbArc
50
-5.560591755003359
51
4.8872472577894932
0
ARC
5
105
100
AcDbEntity
8
0
100
AcDbCircle
10
469.71317865534172
20
369.93104379714282
30
5.770787681137869e-35
40
29.999953923356863
210
-7.5830084663294819e-31
220
-2.1743962999242721e-31
230
1
100
AcDbArc
50
354.43309420757447
51
354.43767001736904
0
ARC
5
106
100
AcDbEntity
8
0
100
AcDbCircle
10
469.71313812013386
20
369.9310477462904
30
0
40
29.999994650483991
210
-7.5830176988515153e-31
220
-2.1743954004543516e-31
230
1
100
AcDbArc
50
294.35913774795029
51
354.43139354070024
0
LINE
5
107
100
AcDbEntity
8
0
100
AcDbLine
10
482.08678119425548
20
342.601711199215
30
3.4404770744906184e-30
11
471.02137953865929
21
337.59173482008532
31
8.6366525962132641e-15
0
LINE
5
108
100
AcDbEntity
8
0
100
AcDbLine
10
461.07811736007221
20
325.3128286290646
30
1.7763568394002505e-14
11
471.02137953865929
21
337.59173482008532
31
8.6366525962132641e-15
0
LINE
5
109
100
AcDbEntity
8
0
100
AcDbLine
10
452.39705066351002
20
332.3426178310408
30
0
11
461.07811736007221
21
325.3128286290646
31
1.7763568394002505e-14
0
LINE
5
110
100
AcDbEntity
8
0
100
AcDbLine
10
441.84416884536972
20
358.82608351441405
30
0
11
452.39705066351002
21
332.3426178310408
31
0
0
ARC
5
111
100
AcDbEntity
8
0
100
AcDbCircle
10
469.71313812013386
20
369.9310477462904
30
0
40
29.999994650482197
210
-7.583017698851496e-31
220
-2.1743954004542522e-31
230
1
100
AcDbArc
50
135.27417305168683
51
201.72582694832096
0
LINE
5
112
100
AcDbEntity
8
0
100
AcDbLine
10
448.39867184814818
20
391.04249503370647
30
-1.1572334110335045e-29
11
468.46056521242525
21
411.29731430987897
31
1.441934834539142e-14
0
LINE
5
113
100
AcDbEntity
8
0
100
AcDbLine
10
468.46056521242525
20
411.29731430987897
30
1.441934834539142e-14
11
479.1982867076847
21
414.37630640220846
31
-6.5791020446856614e-15
0
LINE
5
114
100
AcDbEntity
8
0
100
AcDbLine
10
479.1982867076847
20
414.37630640220846
30
-6.5791020446856614e-15
11
483.55335692959409
21
399.18837160638299
31
-6.3221067280922278e-15
0
LINE
5
115
100
AcDbEntity
8
0
100
AcDbLine
10
491.78155913465014
20
390.25306715763458
30
2.115333326747512e-29
11
483.55335692959409
21
399.18837160638299
31
-6.3221067280922278e-15
0
CIRCLE
5
116
100
AcDbEntity
8
0
100
AcDbCircle
10
476.03908488147141
20
407.07257832531184
30
0
40
1.1500000000000199
210
0
220
-0
230
1
0
CIRCLE
5
117
100
AcDbEntity
8
0
100
AcDbCircle
10
477.83072769428196
20
400.82437730171279
30
0
40
1.1499999999999488
210
0
220
-0
230
1
0
CIRCLE
5
118
100
AcDbEntity
8
0
100
AcDbCircle
10
465.11443320149425
20
338.32179301629708
30
0
40
1.1499999999999486
210
0
220
-0
230
1
0
CIRCLE
5
119
100
AcDbEntity
8
0
100
AcDbCircle
10
461.02385065967087
20
333.2703442668265
30
0
40
1.1500000000000197
210
0
220
-0
230
1
0
LWPOLYLINE
5
120
100
AcDbEntity
8
0
100
AcDbPolyline
90
12
70
1
43
0.0
10
482.91376772282723
20
416.16438590307075
10
482.90853118408103
20
416.46438700693204
42
-0.58233688035866515
10
483.86087580058364
20
414.90588732940523
10
483.25486377527511
20
413.81261269548082
10
483.4904712621792
20
400.31466881086965
10
482.76952499022542
20
400.10794079400688
10
482.09664180306856
20
399.91499464493501
10
482.01395059632347
20
400.20337315371648
10
482.68683378348032
20
400.39631930278836
10
483.18649944289257
20
400.53959612504696
10
482.95350655927155
20
413.88774948829138
10
483.59848988844186
20
415.05133021547914
42
0.5843378409517721
0
ENDSEC
0
SECTION
2
OBJECTS
0
DICTIONARY
5
C
100
AcDbDictionary
3
ACAD_GROUP
350
D
3
ACAD_MLINESTYLE
350
17
0
DICTIONARY
5
D
100
AcDbDictionary
0
DICTIONARY
5
1A
330
C
100
AcDbDictionary
0
DICTIONARY
5
17
100
AcDbDictionary
0
ENDSEC
0
EOF
